<svg xmlns="http://www.w3.org/2000/svg" viewBox="0 0 120 200" width="120" height="200" role="img" aria-labelledby="title desc">
  <title id="title">Remote máy chiếu hãng khác (NEC, Epson, ViewSonic, Eiki) – Hãng khác (NEC, Epson, ViewSonic, Eiki)</title>
  <desc id="desc">Hình nhận biết: hãng khác (nec, epson, viewsonic, eiki); nhiều kiểu remote khác nhau.</desc>
<rect x="24.5" y="10" width="71" height="140" rx="10" fill="#9aa3ad" stroke="#5b6570" stroke-width="2.5"/>
<rect x="46.0" y="4" width="28" height="9" rx="3" fill="#15171a"/>
<rect x="33.5" y="24" width="24.0" height="14" rx="5" fill="#c8102e"/>
<rect x="62.5" y="24" width="24.0" height="14" rx="5" fill="#0b3d91"/>
<rect x="33.5" y="46" width="24.0" height="13" rx="5" fill="#c3c9d0" stroke="#6b7480" stroke-width="1"/>
<rect x="62.5" y="46" width="24.0" height="13" rx="5" fill="#c3c9d0" stroke="#6b7480" stroke-width="1"/>
<rect x="33.5" y="65" width="24.0" height="13" rx="5" fill="#c3c9d0" stroke="#6b7480" stroke-width="1"/>
<rect x="62.5" y="65" width="24.0" height="13" rx="5" fill="#c3c9d0" stroke="#6b7480" stroke-width="1"/>
<rect x="33.5" y="84" width="24.0" height="13" rx="5" fill="#c3c9d0" stroke="#6b7480" stroke-width="1"/>
<rect x="62.5" y="84" width="24.0" height="13" rx="5" fill="#c3c9d0" stroke="#6b7480" stroke-width="1"/>
<circle cx="60.0" cy="118" r="17" fill="#b4bbc3" stroke="#6b7480" stroke-width="1.5"/>
<text x="60.0" y="126.0" font-family="system-ui, -apple-system, 'Segoe UI', Roboto, Arial, sans-serif" font-size="22" font-weight="800" fill="#15171a" text-anchor="middle">?</text>
<rect x="24.5" y="171.0" width="71" height="10" rx="5.0" fill="#9aa3ad" stroke="#5b6570" stroke-width="1.5"/>
<text x="60.0" y="197.0" font-family="system-ui, -apple-system, 'Segoe UI', Roboto, Arial, sans-serif" font-size="8" font-weight="400" fill="#4b5563" text-anchor="middle">nhìn nghiêng</text>
</svg>
